<?xml version="1.0" encoding="UTF-8" standalone="no"?><!DOCTYPE svg PUBLIC "-//W3C//DTD SVG 1.1//EN" "http://www.w3.org/Graphics/SVG/1.1/DTD/svg11.dtd"><svg width="100%" height="100%" viewBox="0 0 512 512" version="1.1" xmlns="http://www.w3.org/2000/svg" xmlns:xlink="http://www.w3.org/1999/xlink" xml:space="preserve" xmlns:serif="http://www.serif.com/" style="fill-rule:evenodd;clip-rule:evenodd;stroke-linejoin:round;stroke-miterlimit:2;"><path d="M333.699,81.248c-3.136,-11.68 -11.92,-21.008 -23.408,-24.832c-11.472,-3.824 -24.096,-1.632 -33.616,5.856c-51.808,40.704 -155.856,122.496 -155.856,122.496c-3.776,2.96 -5.424,7.904 -4.176,12.544l31.904,119.056c1.232,4.64 5.136,8.08 9.888,8.768c0,-0 131.008,18.8 196.224,28.16c11.968,1.712 24.016,-2.688 32.032,-11.744c8.032,-9.056 10.976,-21.52 7.856,-33.216c-15.328,-57.216 -45.52,-169.872 -60.848,-227.088Z" style="fill:#fff;"/><path d="M143.904,191.088c-1.712,-6.4 -8.304,-10.192 -14.704,-8.48c0,0 -29.856,8 -54.208,14.528c-11.28,3.024 -20.88,10.4 -26.72,20.496c-5.84,10.112 -7.424,22.128 -4.4,33.392c4.72,17.616 10.624,39.616 15.344,57.232c3.008,11.28 10.384,20.896 20.496,26.72c10.112,5.84 22.112,7.424 33.392,4.4c24.352,-6.528 54.208,-14.528 54.208,-14.528c6.4,-1.712 10.208,-8.304 8.496,-14.704l-31.904,-119.056Z" style="fill:#fff;"/><path d="M185.696,304.208c-4,-0.56 -8,0.912 -10.688,3.92c-2.672,3.024 -3.648,7.184 -2.608,11.072l15.84,59.152c1.616,6.016 7.568,9.792 13.696,8.704c1.584,-0.288 3.184,-0.64 4.768,-1.056c28.592,-7.664 46.144,-36.064 40.816,-64.672c-0.944,-5.056 -5.008,-8.96 -10.096,-9.696l-51.728,-7.424Zm22.4,55.488l-7.808,-29.136l24.08,3.456c-0.8,10.656 -6.88,20.368 -16.272,25.68Z" style="fill:#fff;"/><path d="M195.584,312.992c-1.248,-4.64 -5.136,-8.096 -9.888,-8.784l-19.776,-2.832c-1.616,-0.224 -3.248,-0.128 -4.816,0.288l-41.776,11.2c-3.312,0.88 -6.096,3.136 -7.632,6.208c-1.536,3.056 -1.68,6.64 -0.416,9.824c0,0 27.088,68 40.88,102.624c6.736,16.912 25.056,26.096 42.64,21.392c19.728,-5.28 31.424,-25.552 26.144,-45.264l-25.36,-94.656Z" style="fill:#fff;"/><path d="M462.624,161.232l-46.416,12.432c-6.384,1.712 -10.192,8.304 -8.48,14.704c1.712,6.4 8.304,10.192 14.704,8.48l46.4,-12.432c6.4,-1.712 10.208,-8.304 8.496,-14.704c-1.712,-6.4 -8.304,-10.192 -14.704,-8.48Z" style="fill:#fff;"/><path d="M416,74.064l-38.624,28.576c-5.312,3.936 -6.448,11.456 -2.512,16.784c3.952,5.328 11.472,6.448 16.784,2.512l38.64,-28.576c5.312,-3.936 6.448,-11.456 2.496,-16.784c-3.936,-5.328 -11.456,-6.448 -16.784,-2.512Z" style="fill:#fff;"/><path d="M473.488,259.776l-47.648,-6.176c-6.576,-0.848 -12.592,3.792 -13.44,10.352c-0.864,6.576 3.792,12.592 10.352,13.456l47.648,6.176c6.576,0.848 12.592,-3.792 13.44,-10.368c0.864,-6.56 -3.792,-12.592 -10.352,-13.44Z" style="fill:#fff;"/></svg>